<svg width="15" height="20" viewBox="0 0 15 20" fill="none" xmlns="http://www.w3.org/2000/svg">
<path d="M14.25 7.75C14.25 13 7.5 19 7.5 19C7.5 19 0.75 13 0.75 7.75C0.75 5.95979 1.46116 4.2429 2.72703 2.97703C3.9929 1.71116 5.70979 1 7.5 1C9.29021 1 11.0071 1.71116 12.273 2.97703C13.5388 4.2429 14.25 5.95979 14.25 7.75Z" stroke="#2D2D2F" stroke-linecap="round" stroke-linejoin="round"/>
<path d="M7.5 10C8.74264 10 9.75 8.99264 9.75 7.75C9.75 6.50736 8.74264 5.5 7.5 5.5C6.25736 5.5 5.25 6.50736 5.25 7.75C5.25 8.99264 6.25736 10 7.5 10Z" stroke="#2D2D2F" stroke-linecap="round" stroke-linejoin="round"/>
</svg>
